<svg width="393" height="41" viewBox="0 0 393 41" fill="none" xmlns="http://www.w3.org/2000/svg">
<rect y="0.5" width="393" height="40" rx="20" fill="#F5F5F5"/>
<path d="M21.25 25.57C20.5593 25.57 19.9247 25.43 19.346 25.15C18.7767 24.8607 18.2867 24.4827 17.876 24.016C17.4653 23.54 17.148 22.9987 16.924 22.392C16.7 21.7853 16.588 21.1647 16.588 20.53C16.588 19.8673 16.7047 19.2327 16.938 18.626C17.1807 18.0193 17.512 17.4827 17.932 17.016C18.352 16.5493 18.8467 16.1807 19.416 15.91C19.9853 15.63 20.6013 15.49 21.264 15.49C21.9547 15.49 22.5847 15.6393 23.154 15.938C23.7327 16.2273 24.2227 16.61 24.624 17.086C25.0347 17.562 25.352 18.1033 25.576 18.71C25.8 19.3073 25.912 19.9187 25.912 20.544C25.912 21.2067 25.7907 21.8413 25.548 22.448C25.3147 23.0547 24.988 23.5913 24.568 24.058C24.1573 24.5153 23.6673 24.884 23.098 25.164C22.5287 25.4347 21.9127 25.57 21.25 25.57ZM17.568 20.53C17.568 21.0713 17.6567 21.594 17.834 22.098C18.0113 22.5927 18.2633 23.036 18.59 23.428C18.9167 23.8107 19.304 24.1187 19.752 24.352C20.2 24.576 20.6993 24.688 21.25 24.688C21.81 24.688 22.3187 24.5667 22.776 24.324C23.2333 24.0813 23.6207 23.764 23.938 23.372C24.2553 22.98 24.498 22.5367 24.666 22.042C24.8433 21.5473 24.932 21.0433 24.932 20.53C24.932 19.9887 24.8387 19.4707 24.652 18.976C24.4747 18.472 24.2227 18.0287 23.896 17.646C23.5693 17.2633 23.182 16.96 22.734 16.736C22.286 16.5027 21.7913 16.386 21.25 16.386C20.69 16.386 20.1813 16.5073 19.724 16.75C19.2667 16.9833 18.8793 17.296 18.562 17.688C18.2447 18.08 17.9973 18.5233 17.82 19.018C17.652 19.5127 17.568 20.0167 17.568 20.53ZM33.946 25.64C33.4514 25.64 32.9987 25.5373 32.588 25.332C32.1867 25.1173 31.8414 24.8373 31.552 24.492C31.2627 24.1373 31.0387 23.736 30.88 23.288C30.7214 22.8307 30.642 22.3547 30.642 21.86C30.642 21.356 30.7307 20.8753 30.908 20.418C31.0854 19.9607 31.328 19.5593 31.636 19.214C31.9534 18.8687 32.322 18.5933 32.742 18.388C33.1714 18.1827 33.6287 18.08 34.114 18.08C34.394 18.08 34.6647 18.122 34.926 18.206C35.1967 18.2807 35.4487 18.388 35.682 18.528C35.9154 18.6587 36.1254 18.822 36.312 19.018C36.508 19.2047 36.676 19.41 36.816 19.634V18.206H37.67V27.208C37.67 27.4693 37.7867 27.6047 38.02 27.614V28.44C37.9267 28.4587 37.8334 28.468 37.74 28.468C37.656 28.468 37.572 28.468 37.488 28.468C37.2734 28.4493 37.0914 28.356 36.942 28.188C36.7927 28.0293 36.718 27.838 36.718 27.614V23.988C36.3634 24.5293 35.9527 24.94 35.486 25.22C35.0194 25.5 34.506 25.64 33.946 25.64ZM34.24 24.8C34.52 24.8 34.7814 24.7533 35.024 24.66C35.276 24.5667 35.5047 24.4453 35.71 24.296C35.9247 24.1373 36.116 23.9553 36.284 23.75C36.452 23.5353 36.5967 23.3113 36.718 23.078V20.824C36.6807 20.572 36.5827 20.334 36.424 20.11C36.2654 19.8767 36.0694 19.6713 35.836 19.494C35.612 19.3167 35.3647 19.1767 35.094 19.074C34.8234 18.9713 34.5574 18.92 34.296 18.92C33.904 18.92 33.54 19.004 33.204 19.172C32.8774 19.34 32.5927 19.564 32.35 19.844C32.1167 20.1147 31.9347 20.4273 31.804 20.782C31.6734 21.1367 31.608 21.5007 31.608 21.874C31.608 22.266 31.6734 22.6393 31.804 22.994C31.9347 23.3487 32.1167 23.6613 32.35 23.932C32.5834 24.1933 32.8587 24.4033 33.176 24.562C33.5027 24.7207 33.8574 24.8 34.24 24.8ZM42.0547 25.64C41.2613 25.64 40.6687 25.3787 40.2767 24.856C39.894 24.324 39.7027 23.5353 39.7027 22.49V18.206H40.6547V22.322C40.6547 23.974 41.2193 24.8 42.3487 24.8C42.6287 24.8 42.904 24.7533 43.1747 24.66C43.4453 24.5667 43.6927 24.4313 43.9167 24.254C44.15 24.0767 44.3553 23.8667 44.5327 23.624C44.7193 23.3813 44.8687 23.106 44.9807 22.798V18.206H45.9327V24.268C45.9327 24.5293 46.0447 24.66 46.2687 24.66V25.5C46.1567 25.5187 46.0633 25.528 45.9887 25.528C45.9233 25.528 45.8767 25.528 45.8487 25.528C45.6247 25.5187 45.4427 25.4393 45.3027 25.29C45.1627 25.1407 45.0927 24.94 45.0927 24.688V23.848C44.7753 24.4173 44.3413 24.8607 43.7907 25.178C43.2493 25.486 42.6707 25.64 42.0547 25.64ZM51.2352 25.64C50.7032 25.64 50.2132 25.542 49.7652 25.346C49.3265 25.1407 48.9438 24.8653 48.6172 24.52C48.2905 24.1653 48.0338 23.7593 47.8472 23.302C47.6698 22.8447 47.5812 22.3547 47.5812 21.832C47.5812 21.3187 47.6698 20.838 47.8472 20.39C48.0338 19.9327 48.2858 19.536 48.6032 19.2C48.9298 18.8547 49.3172 18.584 49.7652 18.388C50.2132 18.1827 50.6985 18.08 51.2212 18.08C51.7532 18.08 52.2385 18.1827 52.6772 18.388C53.1252 18.584 53.5078 18.8547 53.8252 19.2C54.1425 19.5453 54.3898 19.942 54.5672 20.39C54.7445 20.838 54.8332 21.314 54.8332 21.818C54.8332 21.8927 54.8332 21.9673 54.8332 22.042C54.8332 22.1167 54.8285 22.168 54.8192 22.196H48.5752C48.6032 22.588 48.6918 22.952 48.8412 23.288C48.9998 23.6147 49.2005 23.8993 49.4432 24.142C49.6858 24.3847 49.9612 24.576 50.2692 24.716C50.5865 24.8467 50.9225 24.912 51.2772 24.912C51.5105 24.912 51.7438 24.8793 51.9772 24.814C52.2105 24.7487 52.4252 24.66 52.6212 24.548C52.8172 24.436 52.9945 24.3007 53.1532 24.142C53.3118 23.974 53.4332 23.792 53.5172 23.596L54.3432 23.82C54.2312 24.0907 54.0725 24.338 53.8672 24.562C53.6618 24.7767 53.4238 24.968 53.1532 25.136C52.8825 25.2947 52.5838 25.416 52.2572 25.5C51.9305 25.5933 51.5898 25.64 51.2352 25.64ZM53.9232 21.468C53.8952 21.076 53.8018 20.7213 53.6432 20.404C53.4938 20.0773 53.2978 19.7973 53.0552 19.564C52.8218 19.3307 52.5465 19.1487 52.2292 19.018C51.9212 18.8873 51.5898 18.822 51.2352 18.822C50.8805 18.822 50.5445 18.8873 50.2272 19.018C49.9098 19.1487 49.6298 19.3307 49.3872 19.564C49.1538 19.7973 48.9625 20.0773 48.8132 20.404C48.6732 20.7307 48.5892 21.0853 48.5612 21.468H53.9232ZM62.8663 25.64C62.3623 25.64 61.8956 25.5373 61.4663 25.332C61.037 25.1173 60.6683 24.8373 60.3603 24.492C60.0523 24.1467 59.8096 23.75 59.6323 23.302C59.4643 22.8447 59.3803 22.3687 59.3803 21.874C59.3803 21.3607 59.4643 20.8753 59.6323 20.418C59.8003 19.9513 60.029 19.5453 60.3183 19.2C60.617 18.8547 60.967 18.584 61.3683 18.388C61.779 18.1827 62.227 18.08 62.7123 18.08C63.3283 18.08 63.8743 18.2433 64.3503 18.57C64.8263 18.8873 65.1996 19.2747 65.4703 19.732V15.28H66.4223V24.268C66.4223 24.5293 66.5343 24.66 66.7583 24.66V25.5C66.6183 25.528 66.5063 25.542 66.4223 25.542C66.1983 25.542 66.0023 25.472 65.8343 25.332C65.6663 25.1827 65.5823 25.0053 65.5823 24.8V24.086C65.293 24.562 64.901 24.94 64.4063 25.22C63.9116 25.5 63.3983 25.64 62.8663 25.64ZM63.0763 24.8C63.3096 24.8 63.557 24.7533 63.8183 24.66C64.089 24.5667 64.341 24.4407 64.5743 24.282C64.8076 24.114 65.0036 23.9227 65.1623 23.708C65.3303 23.484 65.433 23.246 65.4703 22.994V20.74C65.377 20.488 65.2416 20.2547 65.0643 20.04C64.887 19.816 64.6816 19.62 64.4483 19.452C64.2243 19.284 63.9816 19.1533 63.7203 19.06C63.459 18.9667 63.2023 18.92 62.9503 18.92C62.5583 18.92 62.2036 19.004 61.8863 19.172C61.569 19.34 61.2936 19.564 61.0603 19.844C60.8363 20.1147 60.6636 20.4273 60.5423 20.782C60.421 21.1367 60.3603 21.5007 60.3603 21.874C60.3603 22.266 60.4303 22.6393 60.5703 22.994C60.7103 23.3487 60.9016 23.6613 61.1443 23.932C61.387 24.1933 61.6716 24.4033 61.9983 24.562C62.3343 24.7207 62.6936 24.8 63.0763 24.8ZM71.7293 25.64C71.1973 25.64 70.7073 25.542 70.2593 25.346C69.8206 25.1407 69.438 24.8653 69.1113 24.52C68.7846 24.1653 68.528 23.7593 68.3413 23.302C68.164 22.8447 68.0753 22.3547 68.0753 21.832C68.0753 21.3187 68.164 20.838 68.3413 20.39C68.528 19.9327 68.78 19.536 69.0973 19.2C69.424 18.8547 69.8113 18.584 70.2593 18.388C70.7073 18.1827 71.1926 18.08 71.7153 18.08C72.2473 18.08 72.7326 18.1827 73.1713 18.388C73.6193 18.584 74.002 18.8547 74.3193 19.2C74.6366 19.5453 74.884 19.942 75.0613 20.39C75.2386 20.838 75.3273 21.314 75.3273 21.818C75.3273 21.8927 75.3273 21.9673 75.3273 22.042C75.3273 22.1167 75.3226 22.168 75.3133 22.196H69.0693C69.0973 22.588 69.186 22.952 69.3353 23.288C69.494 23.6147 69.6946 23.8993 69.9373 24.142C70.18 24.3847 70.4553 24.576 70.7633 24.716C71.0806 24.8467 71.4166 24.912 71.7713 24.912C72.0046 24.912 72.238 24.8793 72.4713 24.814C72.7046 24.7487 72.9193 24.66 73.1153 24.548C73.3113 24.436 73.4886 24.3007 73.6473 24.142C73.806 23.974 73.9273 23.792 74.0113 23.596L74.8373 23.82C74.7253 24.0907 74.5666 24.338 74.3613 24.562C74.156 24.7767 73.918 24.968 73.6473 25.136C73.3766 25.2947 73.078 25.416 72.7513 25.5C72.4246 25.5933 72.084 25.64 71.7293 25.64ZM74.4173 21.468C74.3893 21.076 74.296 20.7213 74.1373 20.404C73.988 20.0773 73.792 19.7973 73.5493 19.564C73.316 19.3307 73.0406 19.1487 72.7233 19.018C72.4153 18.8873 72.084 18.822 71.7293 18.822C71.3746 18.822 71.0386 18.8873 70.7213 19.018C70.404 19.1487 70.124 19.3307 69.8813 19.564C69.648 19.7973 69.4566 20.0773 69.3073 20.404C69.1673 20.7307 69.0833 21.0853 69.0553 21.468H74.4173ZM79.2181 25.64C78.6488 25.64 78.0934 25.5467 77.5521 25.36C77.0108 25.1733 76.5441 24.9027 76.1521 24.548L76.5861 23.904C76.9968 24.24 77.4121 24.492 77.8321 24.66C78.2614 24.828 78.7188 24.912 79.2041 24.912C79.7921 24.912 80.2588 24.7953 80.6041 24.562C80.9588 24.3193 81.1361 23.9787 81.1361 23.54C81.1361 23.3347 81.0894 23.1667 80.9961 23.036C80.9028 22.896 80.7628 22.7747 80.5761 22.672C80.3988 22.5693 80.1701 22.4807 79.8901 22.406C79.6194 22.322 79.3021 22.238 78.9381 22.154C78.5181 22.0513 78.1541 21.9487 77.8461 21.846C77.5381 21.7433 77.2814 21.6267 77.0761 21.496C76.8801 21.3653 76.7308 21.2067 76.6281 21.02C76.5348 20.824 76.4881 20.5813 76.4881 20.292C76.4881 19.928 76.5581 19.606 76.6981 19.326C76.8474 19.046 77.0434 18.8173 77.2861 18.64C77.5381 18.4533 77.8274 18.3133 78.1541 18.22C78.4901 18.1267 78.8448 18.08 79.2181 18.08C79.7781 18.08 80.2868 18.1733 80.7441 18.36C81.2014 18.5373 81.5701 18.7753 81.8501 19.074L81.3881 19.634C81.1174 19.354 80.7861 19.144 80.3941 19.004C80.0114 18.864 79.6101 18.794 79.1901 18.794C78.9381 18.794 78.7048 18.822 78.4901 18.878C78.2754 18.9247 78.0841 19.004 77.9161 19.116C77.7574 19.228 77.6314 19.3727 77.5381 19.55C77.4448 19.718 77.3981 19.9187 77.3981 20.152C77.3981 20.348 77.4308 20.5067 77.4961 20.628C77.5614 20.7493 77.6688 20.8567 77.8181 20.95C77.9674 21.034 78.1541 21.1133 78.3781 21.188C78.6114 21.2533 78.8914 21.3233 79.2181 21.398C79.6848 21.51 80.0954 21.622 80.4501 21.734C80.8048 21.846 81.0988 21.9767 81.3321 22.126C81.5748 22.2753 81.7568 22.4573 81.8781 22.672C81.9994 22.8867 82.0601 23.148 82.0601 23.456C82.0601 24.128 81.8034 24.66 81.2901 25.052C80.7768 25.444 80.0861 25.64 79.2181 25.64ZM86.7684 25.64C86.2364 25.64 85.7464 25.542 85.2984 25.346C84.8597 25.1407 84.477 24.8653 84.1504 24.52C83.8237 24.1653 83.567 23.7593 83.3804 23.302C83.203 22.8447 83.1144 22.3547 83.1144 21.832C83.1144 21.3187 83.203 20.838 83.3804 20.39C83.567 19.9327 83.819 19.536 84.1364 19.2C84.463 18.8547 84.8504 18.584 85.2984 18.388C85.7464 18.1827 86.2317 18.08 86.7544 18.08C87.2864 18.08 87.7717 18.1827 88.2104 18.388C88.6584 18.584 89.041 18.8547 89.3584 19.2C89.6757 19.5453 89.923 19.942 90.1004 20.39C90.2777 20.838 90.3664 21.314 90.3664 21.818C90.3664 21.8927 90.3664 21.9673 90.3664 22.042C90.3664 22.1167 90.3617 22.168 90.3524 22.196H84.1084C84.1364 22.588 84.225 22.952 84.3744 23.288C84.533 23.6147 84.7337 23.8993 84.9764 24.142C85.219 24.3847 85.4944 24.576 85.8024 24.716C86.1197 24.8467 86.4557 24.912 86.8104 24.912C87.0437 24.912 87.277 24.8793 87.5104 24.814C87.7437 24.7487 87.9584 24.66 88.1544 24.548C88.3504 24.436 88.5277 24.3007 88.6864 24.142C88.845 23.974 88.9664 23.792 89.0504 23.596L89.8764 23.82C89.7644 24.0907 89.6057 24.338 89.4004 24.562C89.195 24.7767 88.957 24.968 88.6864 25.136C88.4157 25.2947 88.117 25.416 87.7904 25.5C87.4637 25.5933 87.123 25.64 86.7684 25.64ZM89.4564 21.468C89.4284 21.076 89.335 20.7213 89.1764 20.404C89.027 20.0773 88.831 19.7973 88.5884 19.564C88.355 19.3307 88.0797 19.1487 87.7624 19.018C87.4544 18.8873 87.123 18.822 86.7684 18.822C86.4137 18.822 86.0777 18.8873 85.7604 19.018C85.443 19.1487 85.163 19.3307 84.9204 19.564C84.687 19.7973 84.4957 20.0773 84.3464 20.404C84.2064 20.7307 84.1224 21.0853 84.0944 21.468H89.4564ZM90.7432 28.034C90.4352 28.034 90.1458 27.992 89.8752 27.908C89.6045 27.824 89.3618 27.684 89.1472 27.488L89.6092 26.844C89.7585 26.9747 89.9218 27.0633 90.0992 27.11C90.2765 27.1567 90.4538 27.18 90.6312 27.18C90.7992 27.18 90.9578 27.1473 91.1072 27.082C91.2658 27.0167 91.4058 26.9233 91.5272 26.802C91.6485 26.69 91.7465 26.5547 91.8212 26.396C91.8958 26.2373 91.9332 26.0647 91.9332 25.878V18.206H92.8852V25.822C92.8852 26.1487 92.8245 26.4473 92.7032 26.718C92.5818 26.9887 92.4185 27.222 92.2132 27.418C92.0172 27.614 91.7885 27.7633 91.5272 27.866C91.2752 27.978 91.0138 28.034 90.7432 28.034ZM91.9332 16.68V15.28H92.8852V16.68H91.9332ZM96.8137 25.64C96.4684 25.64 96.1464 25.584 95.8477 25.472C95.5584 25.3507 95.3017 25.1873 95.0777 24.982C94.863 24.7767 94.695 24.5387 94.5737 24.268C94.4524 23.988 94.3917 23.6893 94.3917 23.372C94.3917 23.0547 94.4664 22.7607 94.6157 22.49C94.765 22.2193 94.975 21.986 95.2457 21.79C95.5164 21.594 95.8384 21.4447 96.2117 21.342C96.585 21.23 96.9957 21.174 97.4437 21.174C97.817 21.174 98.195 21.2067 98.5777 21.272C98.9604 21.3373 99.301 21.4307 99.5997 21.552V20.894C99.5997 20.25 99.4177 19.7413 99.0537 19.368C98.6897 18.9853 98.1857 18.794 97.5417 18.794C97.1684 18.794 96.7857 18.8687 96.3937 19.018C96.0017 19.1673 95.605 19.382 95.2037 19.662L94.8677 19.032C95.8104 18.3973 96.725 18.08 97.6117 18.08C98.5264 18.08 99.245 18.3367 99.7677 18.85C100.29 19.3633 100.552 20.0727 100.552 20.978V24.268C100.552 24.5293 100.668 24.66 100.902 24.66V25.5C100.743 25.528 100.622 25.542 100.538 25.542C100.295 25.542 100.104 25.4813 99.9637 25.36C99.833 25.2387 99.763 25.0707 99.7537 24.856L99.7257 24.282C99.3897 24.7207 98.965 25.0567 98.4517 25.29C97.9477 25.5233 97.4017 25.64 96.8137 25.64ZM97.0377 24.912C97.5324 24.912 97.985 24.8187 98.3957 24.632C98.8157 24.4453 99.133 24.198 99.3477 23.89C99.4317 23.806 99.4924 23.7173 99.5297 23.624C99.5764 23.5213 99.5997 23.428 99.5997 23.344V22.154C99.2824 22.0327 98.951 21.9393 98.6057 21.874C98.2697 21.8087 97.9244 21.776 97.5697 21.776C96.8977 21.776 96.3517 21.916 95.9317 22.196C95.5117 22.476 95.3017 22.8447 95.3017 23.302C95.3017 23.526 95.3437 23.736 95.4277 23.932C95.521 24.128 95.6424 24.3007 95.7917 24.45C95.9504 24.59 96.137 24.702 96.3517 24.786C96.5664 24.87 96.795 24.912 97.0377 24.912ZM109.327 25.64C108.795 25.64 108.305 25.542 107.857 25.346C107.418 25.1407 107.036 24.8653 106.709 24.52C106.382 24.1653 106.126 23.7593 105.939 23.302C105.762 22.8447 105.673 22.3547 105.673 21.832C105.673 21.3187 105.762 20.838 105.939 20.39C106.126 19.9327 106.378 19.536 106.695 19.2C107.022 18.8547 107.409 18.584 107.857 18.388C108.305 18.1827 108.79 18.08 109.313 18.08C109.845 18.08 110.33 18.1827 110.769 18.388C111.217 18.584 111.6 18.8547 111.917 19.2C112.234 19.5453 112.482 19.942 112.659 20.39C112.836 20.838 112.925 21.314 112.925 21.818C112.925 21.8927 112.925 21.9673 112.925 22.042C112.925 22.1167 112.92 22.168 112.911 22.196H106.667C106.695 22.588 106.784 22.952 106.933 23.288C107.092 23.6147 107.292 23.8993 107.535 24.142C107.778 24.3847 108.053 24.576 108.361 24.716C108.678 24.8467 109.014 24.912 109.369 24.912C109.602 24.912 109.836 24.8793 110.069 24.814C110.302 24.7487 110.517 24.66 110.713 24.548C110.909 24.436 111.086 24.3007 111.245 24.142C111.404 23.974 111.525 23.792 111.609 23.596L112.435 23.82C112.323 24.0907 112.164 24.338 111.959 24.562C111.754 24.7767 111.516 24.968 111.245 25.136C110.974 25.2947 110.676 25.416 110.349 25.5C110.022 25.5933 109.682 25.64 109.327 25.64ZM112.015 21.468C111.987 21.076 111.894 20.7213 111.735 20.404C111.586 20.0773 111.39 19.7973 111.147 19.564C110.914 19.3307 110.638 19.1487 110.321 19.018C110.013 18.8873 109.682 18.822 109.327 18.822C108.972 18.822 108.636 18.8873 108.319 19.018C108.002 19.1487 107.722 19.3307 107.479 19.564C107.246 19.7973 107.054 20.0773 106.905 20.404C106.765 20.7307 106.681 21.0853 106.653 21.468H112.015ZM120.526 25.5H119.574V21.426C119.574 20.558 119.443 19.928 119.182 19.536C118.93 19.144 118.538 18.948 118.006 18.948C117.726 18.948 117.446 18.9993 117.166 19.102C116.886 19.2047 116.624 19.3493 116.382 19.536C116.148 19.7227 115.938 19.9467 115.752 20.208C115.565 20.46 115.43 20.7353 115.346 21.034V25.5H114.394V18.206H115.262V19.858C115.56 19.326 115.985 18.8967 116.536 18.57C117.096 18.2433 117.702 18.08 118.356 18.08C118.757 18.08 119.098 18.1547 119.378 18.304C119.658 18.4533 119.882 18.6633 120.05 18.934C120.218 19.2047 120.339 19.536 120.414 19.928C120.488 20.32 120.526 20.754 120.526 21.23V25.5ZM122.052 21.832C122.052 21.3187 122.141 20.8333 122.318 20.376C122.495 19.9187 122.743 19.522 123.06 19.186C123.387 18.8407 123.774 18.57 124.222 18.374C124.67 18.178 125.165 18.08 125.706 18.08C126.397 18.08 126.999 18.2387 127.512 18.556C128.025 18.864 128.413 19.284 128.674 19.816L127.75 20.11C127.545 19.7367 127.255 19.4473 126.882 19.242C126.518 19.0273 126.112 18.92 125.664 18.92C125.291 18.92 124.941 18.9947 124.614 19.144C124.297 19.2933 124.017 19.4987 123.774 19.76C123.541 20.012 123.354 20.3153 123.214 20.67C123.083 21.0247 123.018 21.412 123.018 21.832C123.018 22.2427 123.088 22.63 123.228 22.994C123.368 23.358 123.559 23.6753 123.802 23.946C124.045 24.2073 124.325 24.4173 124.642 24.576C124.969 24.7253 125.314 24.8 125.678 24.8C125.911 24.8 126.14 24.7673 126.364 24.702C126.597 24.6367 126.812 24.548 127.008 24.436C127.204 24.3147 127.372 24.1793 127.512 24.03C127.652 23.8807 127.75 23.722 127.806 23.554L128.744 23.834C128.641 24.0953 128.492 24.338 128.296 24.562C128.1 24.7767 127.867 24.968 127.596 25.136C127.335 25.2947 127.041 25.416 126.714 25.5C126.397 25.5933 126.065 25.64 125.72 25.64C125.188 25.64 124.698 25.542 124.25 25.346C123.802 25.1407 123.415 24.8653 123.088 24.52C122.761 24.1653 122.505 23.7593 122.318 23.302C122.141 22.8447 122.052 22.3547 122.052 21.832ZM133.279 25.64C132.747 25.64 132.262 25.542 131.823 25.346C131.384 25.1407 131.002 24.8653 130.675 24.52C130.358 24.1747 130.11 23.7733 129.933 23.316C129.756 22.8587 129.667 22.378 129.667 21.874C129.667 21.3607 129.756 20.8753 129.933 20.418C130.12 19.9607 130.372 19.5593 130.689 19.214C131.016 18.8687 131.398 18.5933 131.837 18.388C132.276 18.1827 132.756 18.08 133.279 18.08C133.802 18.08 134.282 18.1827 134.721 18.388C135.169 18.5933 135.552 18.8687 135.869 19.214C136.196 19.5593 136.448 19.9607 136.625 20.418C136.812 20.8753 136.905 21.3607 136.905 21.874C136.905 22.378 136.816 22.8587 136.639 23.316C136.462 23.7733 136.21 24.1747 135.883 24.52C135.566 24.8653 135.183 25.1407 134.735 25.346C134.296 25.542 133.811 25.64 133.279 25.64ZM130.633 21.888C130.633 22.2987 130.703 22.6813 130.843 23.036C130.983 23.3813 131.17 23.6893 131.403 23.96C131.646 24.2213 131.926 24.4267 132.243 24.576C132.57 24.7253 132.915 24.8 133.279 24.8C133.643 24.8 133.984 24.7253 134.301 24.576C134.628 24.4173 134.912 24.2073 135.155 23.946C135.398 23.6753 135.589 23.3627 135.729 23.008C135.869 22.6533 135.939 22.2707 135.939 21.86C135.939 21.4587 135.869 21.0807 135.729 20.726C135.589 20.362 135.398 20.0493 135.155 19.788C134.912 19.5173 134.628 19.3073 134.301 19.158C133.984 18.9993 133.643 18.92 133.279 18.92C132.915 18.92 132.574 18.9993 132.257 19.158C131.94 19.3073 131.66 19.5173 131.417 19.788C131.174 20.0587 130.983 20.376 130.843 20.74C130.703 21.0947 130.633 21.4773 130.633 21.888ZM144.629 25.5H143.677V21.426C143.677 20.558 143.547 19.928 143.285 19.536C143.033 19.144 142.641 18.948 142.109 18.948C141.829 18.948 141.549 18.9993 141.269 19.102C140.989 19.2047 140.728 19.3493 140.485 19.536C140.252 19.7227 140.042 19.9467 139.855 20.208C139.669 20.46 139.533 20.7353 139.449 21.034V25.5H138.497V18.206H139.365V19.858C139.664 19.326 140.089 18.8967 140.639 18.57C141.199 18.2433 141.806 18.08 142.459 18.08C142.861 18.08 143.201 18.1547 143.481 18.304C143.761 18.4533 143.985 18.6633 144.153 18.934C144.321 19.2047 144.443 19.536 144.517 19.928C144.592 20.32 144.629 20.754 144.629 21.23V25.5ZM150.091 25.15C150.035 25.178 149.951 25.2153 149.839 25.262C149.736 25.3087 149.615 25.3553 149.475 25.402C149.335 25.4487 149.176 25.4907 148.999 25.528C148.822 25.5653 148.635 25.584 148.439 25.584C148.234 25.584 148.038 25.556 147.851 25.5C147.664 25.444 147.501 25.36 147.361 25.248C147.221 25.1267 147.109 24.9773 147.025 24.8C146.941 24.6227 146.899 24.4173 146.899 24.184V18.962H145.891V18.206H146.899V15.742H147.851V18.206H149.531V18.962H147.851V23.918C147.87 24.1887 147.963 24.3893 148.131 24.52C148.308 24.6413 148.509 24.702 148.733 24.702C149.004 24.702 149.242 24.66 149.447 24.576C149.652 24.4827 149.783 24.4173 149.839 24.38L150.091 25.15ZM154.92 19.046C154.276 19.0647 153.716 19.242 153.24 19.578C152.764 19.914 152.428 20.376 152.232 20.964V25.5H151.28V18.206H152.176V19.956C152.447 19.396 152.811 18.9573 153.268 18.64C153.726 18.3227 154.216 18.164 154.738 18.164C154.813 18.164 154.874 18.1687 154.92 18.178V19.046ZM157.927 25.64C157.582 25.64 157.26 25.584 156.961 25.472C156.672 25.3507 156.415 25.1873 156.191 24.982C155.976 24.7767 155.808 24.5387 155.687 24.268C155.566 23.988 155.505 23.6893 155.505 23.372C155.505 23.0547 155.58 22.7607 155.729 22.49C155.878 22.2193 156.088 21.986 156.359 21.79C156.63 21.594 156.952 21.4447 157.325 21.342C157.698 21.23 158.109 21.174 158.557 21.174C158.93 21.174 159.308 21.2067 159.691 21.272C160.074 21.3373 160.414 21.4307 160.713 21.552V20.894C160.713 20.25 160.531 19.7413 160.167 19.368C159.803 18.9853 159.299 18.794 158.655 18.794C158.282 18.794 157.899 18.8687 157.507 19.018C157.115 19.1673 156.718 19.382 156.317 19.662L155.981 19.032C156.924 18.3973 157.838 18.08 158.725 18.08C159.64 18.08 160.358 18.3367 160.881 18.85C161.404 19.3633 161.665 20.0727 161.665 20.978V24.268C161.665 24.5293 161.782 24.66 162.015 24.66V25.5C161.856 25.528 161.735 25.542 161.651 25.542C161.408 25.542 161.217 25.4813 161.077 25.36C160.946 25.2387 160.876 25.0707 160.867 24.856L160.839 24.282C160.503 24.7207 160.078 25.0567 159.565 25.29C159.061 25.5233 158.515 25.64 157.927 25.64ZM158.151 24.912C158.646 24.912 159.098 24.8187 159.509 24.632C159.929 24.4453 160.246 24.198 160.461 23.89C160.545 23.806 160.606 23.7173 160.643 23.624C160.69 23.5213 160.713 23.428 160.713 23.344V22.154C160.396 22.0327 160.064 21.9393 159.719 21.874C159.383 21.8087 159.038 21.776 158.683 21.776C158.011 21.776 157.465 21.916 157.045 22.196C156.625 22.476 156.415 22.8447 156.415 23.302C156.415 23.526 156.457 23.736 156.541 23.932C156.634 24.128 156.756 24.3007 156.905 24.45C157.064 24.59 157.25 24.702 157.465 24.786C157.68 24.87 157.908 24.912 158.151 24.912ZM167.362 19.046C166.718 19.0647 166.158 19.242 165.682 19.578C165.206 19.914 164.87 20.376 164.674 20.964V25.5H163.722V18.206H164.618V19.956C164.889 19.396 165.253 18.9573 165.71 18.64C166.167 18.3227 166.657 18.164 167.18 18.164C167.255 18.164 167.315 18.1687 167.362 18.178V19.046ZM169.736 22.672C169.736 22.056 169.829 21.566 170.016 21.202C170.212 20.838 170.515 20.5347 170.926 20.292C171.113 20.18 171.318 20.068 171.542 19.956C171.766 19.8347 171.976 19.69 172.172 19.522C172.368 19.354 172.531 19.1533 172.662 18.92C172.802 18.6867 172.872 18.3973 172.872 18.052C172.872 17.744 172.816 17.478 172.704 17.254C172.601 17.03 172.461 16.8433 172.284 16.694C172.107 16.5353 171.901 16.4187 171.668 16.344C171.444 16.2693 171.211 16.232 170.968 16.232C170.464 16.232 170.011 16.372 169.61 16.652C169.218 16.9227 168.919 17.2587 168.714 17.66L168.056 17.24C168.187 16.9507 168.355 16.694 168.56 16.47C168.765 16.246 168.994 16.0593 169.246 15.91C169.507 15.7513 169.783 15.6347 170.072 15.56C170.371 15.476 170.674 15.434 170.982 15.434C171.327 15.434 171.663 15.49 171.99 15.602C172.317 15.7047 172.606 15.868 172.858 16.092C173.119 16.316 173.325 16.596 173.474 16.932C173.633 17.268 173.712 17.66 173.712 18.108C173.712 18.4813 173.656 18.7987 173.544 19.06C173.441 19.312 173.301 19.5313 173.124 19.718C172.947 19.9047 172.741 20.068 172.508 20.208C172.284 20.3387 172.055 20.4693 171.822 20.6C171.654 20.6933 171.495 20.7913 171.346 20.894C171.197 20.9873 171.061 21.1133 170.94 21.272C170.819 21.4213 170.721 21.608 170.646 21.832C170.581 22.056 170.548 22.336 170.548 22.672H169.736ZM169.75 25.5V24.002H170.576V25.5H169.75Z" fill="#A2A2A2"/>
<path d="M368.5 22.5H367.71L367.43 22.23C368.63 20.83 369.25 18.92 368.91 16.89C368.44 14.11 366.12 11.89 363.32 11.55C359.09 11.03 355.53 14.59 356.05 18.82C356.39 21.62 358.61 23.94 361.39 24.41C363.42 24.75 365.33 24.13 366.73 22.93L367 23.21V24L371.25 28.25C371.66 28.66 372.33 28.66 372.74 28.25C373.15 27.84 373.15 27.17 372.74 26.76L368.5 22.5ZM362.5 22.5C360.01 22.5 358 20.49 358 18C358 15.51 360.01 13.5 362.5 13.5C364.99 13.5 367 15.51 367 18C367 20.49 364.99 22.5 362.5 22.5Z" fill="#A2A2A2"/>
</svg>
