<svg width="98" height="24" viewBox="0 0 98 24" fill="none" xmlns="http://www.w3.org/2000/svg">
<path d="M2.352 6.14L5.424 14.732L8.464 6.14H10.784L6.352 17.5H4.496L0.032 6.14H2.352ZM14.6453 17.66C13.9733 17.66 13.3653 17.548 12.8213 17.324C12.2773 17.0893 11.8133 16.7747 11.4293 16.38C11.0453 15.9853 10.7466 15.5267 10.5333 15.004C10.3306 14.4813 10.2293 13.932 10.2293 13.356C10.2293 12.7587 10.3306 12.1987 10.5333 11.676C10.7359 11.1427 11.0293 10.6787 11.4133 10.284C11.7973 9.87867 12.2613 9.55867 12.8053 9.324C13.3599 9.08933 13.9786 8.972 14.6613 8.972C15.3439 8.972 15.9519 9.08933 16.4853 9.324C17.0293 9.55867 17.4879 9.87333 17.8612 10.268C18.2453 10.6627 18.5333 11.1213 18.7253 11.644C18.9279 12.1667 19.0293 12.7107 19.0293 13.276C19.0293 13.4147 19.0239 13.548 19.0133 13.676C19.0133 13.804 19.0026 13.9107 18.9813 13.996H12.5013C12.5333 14.3267 12.6133 14.62 12.7413 14.876C12.8693 15.132 13.0346 15.3507 13.2373 15.532C13.4399 15.7133 13.6693 15.852 13.9253 15.948C14.1813 16.044 14.4479 16.092 14.7253 16.092C15.1519 16.092 15.5519 15.9907 15.9253 15.788C16.3093 15.5747 16.5706 15.2973 16.7093 14.956L18.5493 15.468C18.2399 16.108 17.7439 16.636 17.0613 17.052C16.3893 17.4573 15.5839 17.66 14.6453 17.66ZM16.8213 12.604C16.7679 11.9747 16.5333 11.4733 16.1173 11.1C15.7119 10.716 15.2159 10.524 14.6293 10.524C14.3413 10.524 14.0693 10.5773 13.8133 10.684C13.5679 10.78 13.3493 10.9187 13.1573 11.1C12.9653 11.2813 12.8053 11.5 12.6773 11.756C12.5599 12.012 12.4906 12.2947 12.4693 12.604H16.8213ZM25.3274 10.972C24.6767 10.9827 24.0954 11.1107 23.5834 11.356C23.0714 11.5907 22.7034 11.948 22.4794 12.428V17.5H20.3354V9.116H22.3034V10.908C22.4527 10.62 22.6287 10.364 22.8314 10.14C23.034 9.90533 23.2527 9.70267 23.4874 9.532C23.722 9.36133 23.9567 9.23333 24.1914 9.148C24.4367 9.052 24.6714 9.004 24.8954 9.004C25.0127 9.004 25.098 9.004 25.1514 9.004C25.2154 9.004 25.274 9.00933 25.3274 9.02V10.972ZM35 17.068C34.712 17.196 34.36 17.324 33.944 17.452C33.528 17.58 33.0907 17.644 32.632 17.644C32.3333 17.644 32.0507 17.6067 31.784 17.532C31.528 17.4573 31.2987 17.34 31.096 17.18C30.904 17.0093 30.7493 16.796 30.632 16.54C30.5147 16.2733 30.456 15.9533 30.456 15.58V10.764H29.352V9.116H30.456V6.396H32.6V9.116H34.36V10.764H32.6V14.86C32.6 15.1587 32.6747 15.372 32.824 15.5C32.984 15.6173 33.176 15.676 33.4 15.676C33.624 15.676 33.8427 15.6387 34.056 15.564C34.2693 15.4893 34.44 15.4253 34.568 15.372L35 17.068ZM38.6766 17.66C37.8126 17.66 37.1566 17.3827 36.7086 16.828C36.2606 16.2733 36.0366 15.452 36.0366 14.364V9.116H38.1806V13.9C38.1806 15.1907 38.6446 15.836 39.5726 15.836C39.9886 15.836 40.3886 15.7133 40.7726 15.468C41.1673 15.212 41.4873 14.828 41.7326 14.316V9.116H43.8766V15.036C43.8766 15.26 43.914 15.42 43.9886 15.516C44.074 15.612 44.2073 15.6653 44.3886 15.676V17.5C44.1753 17.5427 43.994 17.5693 43.8446 17.58C43.706 17.5907 43.578 17.596 43.4606 17.596C43.0766 17.596 42.762 17.5107 42.5166 17.34C42.282 17.1587 42.1433 16.9133 42.1006 16.604L42.0526 15.932C41.6793 16.508 41.1993 16.94 40.6126 17.228C40.026 17.516 39.3806 17.66 38.6766 17.66ZM49.4793 17.66C48.9033 17.66 48.3699 17.548 47.8793 17.324C47.3886 17.1 46.9673 16.7907 46.6153 16.396C46.2633 16.0013 45.9859 15.5427 45.7833 15.02C45.5913 14.4867 45.4953 13.916 45.4953 13.308C45.4953 12.7 45.5859 12.1347 45.7673 11.612C45.9593 11.0893 46.2206 10.6307 46.5513 10.236C46.8819 9.84133 47.2766 9.532 47.7353 9.308C48.1939 9.084 48.6953 8.972 49.2393 8.972C49.8579 8.972 50.4126 9.12133 50.9033 9.42C51.4046 9.71867 51.7939 10.108 52.0713 10.588V5.82H54.2153V15.036C54.2153 15.26 54.2526 15.42 54.3273 15.516C54.4019 15.612 54.5299 15.6653 54.7113 15.676V17.5C54.3379 17.5747 54.0339 17.612 53.7993 17.612C53.4153 17.612 53.1006 17.516 52.8553 17.324C52.6099 17.132 52.4713 16.8813 52.4393 16.572L52.3913 16.044C52.0819 16.5773 51.6606 16.9827 51.1273 17.26C50.6046 17.5267 50.0553 17.66 49.4793 17.66ZM50.0393 15.836C50.2419 15.836 50.4499 15.804 50.6633 15.74C50.8766 15.6653 51.0739 15.564 51.2553 15.436C51.4366 15.308 51.5966 15.1587 51.7353 14.988C51.8846 14.8173 51.9966 14.6307 52.0713 14.428V12.428C51.9859 12.1933 51.8633 11.98 51.7033 11.788C51.5539 11.5853 51.3779 11.4147 51.1753 11.276C50.9833 11.1267 50.7753 11.0093 50.5513 10.924C50.3379 10.8387 50.1246 10.796 49.9113 10.796C49.5913 10.796 49.2926 10.8653 49.0153 11.004C48.7486 11.1427 48.5193 11.3347 48.3273 11.58C48.1353 11.8147 47.9859 12.0867 47.8793 12.396C47.7726 12.7053 47.7193 13.0253 47.7193 13.356C47.7193 13.708 47.7779 14.0333 47.8953 14.332C48.0126 14.6307 48.1726 14.892 48.3753 15.116C48.5779 15.34 48.8179 15.516 49.0953 15.644C49.3833 15.772 49.6979 15.836 50.0393 15.836ZM60.1918 17.66C59.5091 17.66 58.8958 17.5427 58.3518 17.308C57.8078 17.0733 57.3438 16.7587 56.9598 16.364C56.5864 15.9587 56.2984 15.4947 56.0958 14.972C55.8931 14.4493 55.7918 13.9 55.7918 13.324C55.7918 12.7373 55.8931 12.1827 56.0958 11.66C56.2984 11.1373 56.5864 10.6787 56.9598 10.284C57.3438 9.87867 57.8078 9.55867 58.3518 9.324C58.8958 9.08933 59.5091 8.972 60.1918 8.972C60.8744 8.972 61.4824 9.08933 62.0158 9.324C62.5598 9.55867 63.0184 9.87867 63.3918 10.284C63.7758 10.6787 64.0691 11.1373 64.2718 11.66C64.4744 12.1827 64.5758 12.7373 64.5758 13.324C64.5758 13.9 64.4744 14.4493 64.2718 14.972C64.0691 15.4947 63.7811 15.9587 63.4078 16.364C63.0344 16.7587 62.5758 17.0733 62.0318 17.308C61.4878 17.5427 60.8744 17.66 60.1918 17.66ZM57.9998 13.324C57.9998 13.6973 58.0531 14.0387 58.1598 14.348C58.2771 14.6467 58.4318 14.908 58.6238 15.132C58.8264 15.356 59.0611 15.532 59.3278 15.66C59.5944 15.7773 59.8824 15.836 60.1918 15.836C60.5011 15.836 60.7891 15.7773 61.0558 15.66C61.3224 15.532 61.5518 15.356 61.7438 15.132C61.9464 14.908 62.1011 14.6413 62.2078 14.332C62.3251 14.0227 62.3838 13.6813 62.3838 13.308C62.3838 12.9453 62.3251 12.6093 62.2078 12.3C62.1011 11.9907 61.9464 11.724 61.7438 11.5C61.5518 11.276 61.3224 11.1053 61.0558 10.988C60.7891 10.86 60.5011 10.796 60.1918 10.796C59.8824 10.796 59.5944 10.86 59.3278 10.988C59.0611 11.116 58.8264 11.292 58.6238 11.516C58.4318 11.74 58.2771 12.0067 58.1598 12.316C58.0531 12.6253 57.9998 12.9613 57.9998 13.324Z" fill="#2A7AE4"/>
<path d="M78 13L90.17 13L84.58 18.59L86 20L94 12L86 4L84.59 5.41L90.17 11L78 11L78 13Z" fill="#2A7AE4"/>
</svg>
